<svg width="36" height="36" viewBox="0 0 36 36" fill="none" xmlns="http://www.w3.org/2000/svg">
<path d="M33.84 18.375C33.84 17.205 33.735 16.08 33.54 15H18V21.39H26.88C26.49 23.445 25.32 25.185 23.565 26.355V30.51H28.92C32.04 27.63 33.84 23.4 33.84 18.375Z" fill="#4285F4"/>
<path d="M17.9995 34.4999C22.4545 34.4999 26.1895 33.0299 28.9195 30.5099L23.5645 26.3549C22.0945 27.3449 20.2195 27.9449 17.9995 27.9449C13.7095 27.9449 10.0645 25.0499 8.75953 21.1499H3.26953V25.4099C5.98453 30.7949 11.5495 34.4999 17.9995 34.4999Z" fill="#34A853"/>
<path d="M8.76049 21.135C8.43049 20.145 8.23549 19.095 8.23549 18C8.23549 16.905 8.43049 15.855 8.76049 14.865V10.605H3.27049C2.14549 12.825 1.50049 15.33 1.50049 18C1.50049 20.67 2.14549 23.175 3.27049 25.395L7.54549 22.065L8.76049 21.135Z" fill="#FBBC05"/>
<path d="M17.9995 8.07C20.4295 8.07 22.5895 8.91 24.3145 10.53L29.0395 5.805C26.1745 3.135 22.4545 1.5 17.9995 1.5C11.5495 1.5 5.98453 5.205 3.26953 10.605L8.75953 14.865C10.0645 10.965 13.7095 8.07 17.9995 8.07Z" fill="#EA4335"/>
</svg>
