<svg width="72" height="72" viewBox="0 0 72 72" fill="none" xmlns="http://www.w3.org/2000/svg">
<circle cx="36" cy="36" r="36" fill="white"/>
<path opacity="0.4" d="M55.0191 36.0095V45.5143C55.0191 51.2172 51.2172 55.0191 45.5143 55.0191H26.5048C20.8019 55.0191 17 51.2172 17 45.5143V36.0095C17 30.8389 20.1176 27.2271 24.965 26.6188C25.4592 26.5428 25.9725 26.5048 26.5048 26.5048H45.5143C46.0086 26.5048 46.4838 26.5238 46.94 26.5998C51.8445 27.1701 55.0191 30.8009 55.0191 36.0095Z" fill="#5187F1"/>
<path d="M46.939 26.5998C46.4828 26.5238 46.0075 26.5048 45.5133 26.5048H26.5036C25.9714 26.5048 25.4581 26.5428 24.9639 26.6188C25.23 26.0866 25.6102 25.5923 26.0664 25.1361L32.2446 18.939C34.8489 16.3537 39.069 16.3537 41.6733 18.939L45 22.3037C46.2166 23.5013 46.863 25.022 46.939 26.5998Z" fill="#5187F1"/>
<path d="M55.0191 36.96H49.3162C47.2251 36.96 45.5143 38.6708 45.5143 40.7619C45.5143 42.8529 47.2251 44.5638 49.3162 44.5638H55.0191" fill="#5187F1"/>
</svg>
