<svg width="72" height="72" viewBox="0 0 72 72" fill="none" xmlns="http://www.w3.org/2000/svg">
<circle cx="36" cy="36" r="36" fill="white"/>
<path d="M52.5098 38.5485V38.5295C50.837 36.7616 48.4989 35.6781 45.8947 35.6781C40.8572 35.6781 36.7703 39.7651 36.7703 44.8025C36.7703 47.1406 37.6637 49.2696 39.1084 50.8854C40.7812 52.7483 43.1954 53.9269 45.8947 53.9269C50.9321 53.9269 55.0191 49.8399 55.0191 44.8025C55.0191 42.3883 54.0686 40.1833 52.5098 38.5485ZM49.2973 46.3422H47.3203V48.4142C47.3203 49.1936 46.674 49.8399 45.8947 49.8399C45.1153 49.8399 44.469 49.1936 44.469 48.4142V46.3422H42.4918C41.6934 46.3422 41.0661 45.7149 41.0661 44.9165C41.0661 44.1372 41.6746 43.5099 42.473 43.4909H44.469V41.5899C44.469 41.5519 44.469 41.5139 44.488 41.4759C44.526 40.7535 45.1533 40.1643 45.8947 40.1643C46.655 40.1643 47.2823 40.7726 47.3203 41.5329V43.4909H49.2973C50.0957 43.4909 50.723 44.1372 50.723 44.9165C50.723 45.7149 50.0957 46.3422 49.2973 46.3422Z" fill="#5187F1"/>
<path opacity="0.4" d="M55.0183 28.6261C55.0183 30.8882 54.6571 32.9792 54.0298 34.9181C53.6306 36.1918 53.1174 37.4083 52.5091 38.5299C50.8363 36.762 48.4982 35.6785 45.8939 35.6785C40.8565 35.6785 36.7695 39.7655 36.7695 44.8029C36.7695 47.141 37.663 49.2701 39.1077 50.8858C38.4043 51.209 37.758 51.4751 37.1877 51.6652C36.5414 51.8933 35.4769 51.8933 34.8306 51.6652C30.2494 50.1065 20.992 44.4227 17.9885 34.9181C17.3612 32.9792 17 30.8882 17 28.6261C17 22.7523 21.7333 18 27.5691 18C31.0097 18 34.0892 19.6728 36.0092 22.239C37.9291 19.6728 41.0086 18 44.4492 18C50.285 18 55.0183 22.7523 55.0183 28.6261Z" fill="#5187F1"/>
</svg>
