<svg width="72" height="72" viewBox="0 0 72 72" fill="none" xmlns="http://www.w3.org/2000/svg">
<circle cx="36" cy="36" r="36" fill="white"/>
<path opacity="0.4" d="M49.2905 30.4794C49.2905 33.2301 48.4748 35.7531 47.071 37.8589C45.0222 40.8941 41.7782 43.0378 38.0031 43.588C37.3581 43.7018 36.6941 43.7587 36.0112 43.7587C35.3282 43.7587 34.6643 43.7018 34.0193 43.588C30.2442 43.0378 27.0002 40.8941 24.9514 37.8589C23.5476 35.7531 22.7318 33.2301 22.7318 30.4794C22.7318 23.1378 28.6696 17.2 36.0112 17.2C43.3528 17.2 49.2905 23.1378 49.2905 30.4794Z" fill="#FC7327"/>
<path d="M53.5572 48.4442L50.4271 49.1841C49.7252 49.3548 49.1751 49.886 49.0233 50.5879L48.3593 53.3766C47.9989 54.8942 46.0639 55.3495 45.0585 54.1544L36.0095 43.7585L26.9606 54.1733C25.9552 55.3685 24.0202 54.9132 23.6598 53.3955L22.9958 50.6069C22.8251 49.905 22.2749 49.3548 21.592 49.2031L18.4618 48.4632C17.0201 48.1217 16.5079 46.3196 17.5513 45.2762L24.9497 37.8777C26.9986 40.913 30.2425 43.0566 34.0176 43.6068C34.6626 43.7206 35.3266 43.7775 36.0095 43.7775C36.6925 43.7775 37.3564 43.7206 38.0014 43.6068C41.7766 43.0566 45.0205 40.913 47.0693 37.8777L54.4678 45.2762C55.5112 46.3006 54.999 48.1028 53.5572 48.4442Z" fill="#FC7327"/>
<path d="M37.1116 24.7502L38.2309 26.9887C38.3826 27.2923 38.781 27.5958 39.1414 27.6527L41.1713 27.9942C42.4613 28.2029 42.7648 29.1514 41.8353 30.081L40.2607 31.6555C39.9951 31.921 39.8434 32.4333 39.9382 32.8127L40.3935 34.7667C40.7539 36.3033 39.9382 36.9103 38.5723 36.0946L36.6753 34.9753C36.3338 34.7667 35.7647 34.7667 35.4232 34.9753L33.5262 36.0946C32.1603 36.8914 31.3445 36.3033 31.705 34.7667L32.1603 32.8127C32.2362 32.4523 32.1033 31.921 31.8378 31.6555L30.2632 30.081C29.3336 29.1514 29.6372 28.2218 30.9272 27.9942L32.9571 27.6527C33.2985 27.5958 33.6969 27.2923 33.8487 26.9887L34.9679 24.7502C35.5181 23.5361 36.5045 23.5361 37.1116 24.7502Z" fill="#FC7327"/>
</svg>
