<svg width="72" height="72" viewBox="0 0 72 72" fill="none" xmlns="http://www.w3.org/2000/svg">
<circle cx="36" cy="36" r="36" fill="white"/>
<path opacity="0.4" d="M33.6177 17.8409C34.9288 16.7197 37.0761 16.7197 38.4062 17.8409L41.4086 20.4252C41.9787 20.9192 43.0428 21.3183 43.8029 21.3183H47.0333C49.0476 21.3183 50.7008 22.9715 50.7008 24.9857V28.2162C50.7008 28.9572 51.0998 30.0404 51.5939 30.6105L54.1782 33.6129C55.2994 34.924 55.2994 37.0713 54.1782 38.4015L51.5939 41.4039C51.0998 41.9739 50.7008 43.0381 50.7008 43.7982V47.0286C50.7008 49.0428 49.0476 50.696 47.0333 50.696H43.8029C43.0618 50.696 41.9787 51.0951 41.4086 51.5891L38.4062 54.1735C37.0951 55.2946 34.9478 55.2946 33.6177 54.1735L30.6152 51.5891C30.0451 51.0951 28.981 50.696 28.2209 50.696H24.9335C22.9192 50.696 21.266 49.0428 21.266 47.0286V43.7792C21.266 43.0381 20.867 41.9739 20.3919 41.4039L17.8266 38.3825C16.7245 37.0713 16.7245 34.943 17.8266 33.6319L20.3919 30.6105C20.867 30.0404 21.266 28.9762 21.266 28.2352V24.9667C21.266 22.9525 22.9192 21.2993 24.9335 21.2993H28.2209C28.962 21.2993 30.0451 20.9002 30.6152 20.4062L33.6177 17.8409Z" fill="#5187F1"/>
<path d="M33.6929 42.0117C33.3129 42.0117 32.9518 41.8597 32.6858 41.5937L28.0873 36.9951C27.5362 36.444 27.5362 35.5319 28.0873 34.9809C28.6384 34.4298 29.5505 34.4298 30.1016 34.9809L33.6929 38.5723L41.8639 30.4013C42.415 29.8503 43.3271 29.8503 43.8782 30.4013C44.4293 30.9524 44.4293 31.8645 43.8782 32.4155L34.7 41.5937C34.434 41.8597 34.073 42.0117 33.6929 42.0117Z" fill="#5187F1"/>
</svg>
