<svg width="24" height="24" viewBox="0 0 24 24" fill="none" xmlns="http://www.w3.org/2000/svg">
<g clip-path="url(#clip0_5156_12440)">
<path d="M10.6667 5.33252C10.6667 8.27802 8.27972 10.6667 5.33421 10.6667C2.38871 10.6667 0 8.27802 0 5.33252C0 2.38701 2.38871 0 5.33421 0C8.27972 0 10.6667 2.38758 10.6667 5.33252Z" fill="#062433"/>
<path d="M10.6667 5.33252C10.6667 8.27802 8.27972 10.6667 5.33421 10.6667C2.38871 10.6667 0 8.27802 0 5.33252C0 2.38701 2.38871 0 5.33421 0C8.27972 0 10.6667 2.38758 10.6667 5.33252Z" fill="black" fill-opacity="0.2"/>
<path d="M24.0118 17.5234C24.0118 21.107 21.1058 24.0113 17.5222 24.0113C13.9386 24.0113 11.0371 21.107 11.0371 17.5234C11.0371 13.9398 13.9403 11.0349 17.5222 11.0349C21.1041 11.0349 24.0118 13.9398 24.0118 17.5234Z" fill="#062433"/>
<path d="M24.0118 17.5234C24.0118 21.107 21.1058 24.0113 17.5222 24.0113C13.9386 24.0113 11.0371 21.107 11.0371 17.5234C11.0371 13.9398 13.9403 11.0349 17.5222 11.0349C21.1041 11.0349 24.0118 13.9398 24.0118 17.5234Z" fill="black" fill-opacity="0.2"/>
<path d="M21.7001 5.33242C21.7001 7.63924 19.8298 9.51011 17.5225 9.51011C15.2151 9.51011 13.3481 7.63924 13.3481 5.33242C13.3481 3.02559 15.2185 1.15698 17.5225 1.15698C19.8265 1.15698 21.7001 3.02616 21.7001 5.33242Z" fill="#062433"/>
<path d="M21.7001 5.33242C21.7001 7.63924 19.8298 9.51011 17.5225 9.51011C15.2151 9.51011 13.3481 7.63924 13.3481 5.33242C13.3481 3.02559 15.2185 1.15698 17.5225 1.15698C19.8265 1.15698 21.7001 3.02616 21.7001 5.33242Z" fill="black" fill-opacity="0.2"/>
<path d="M8.35549 17.5233C8.35549 19.192 7.00189 20.5422 5.33375 20.5422C3.66561 20.5422 2.31201 19.192 2.31201 17.5233C2.31201 15.8546 3.66561 14.5044 5.33375 14.5044C7.00189 14.5044 8.35549 15.8546 8.35549 17.5233Z" fill="#062433"/>
<path d="M8.35549 17.5233C8.35549 19.192 7.00189 20.5422 5.33375 20.5422C3.66561 20.5422 2.31201 19.192 2.31201 17.5233C2.31201 15.8546 3.66561 14.5044 5.33375 14.5044C7.00189 14.5044 8.35549 15.8546 8.35549 17.5233Z" fill="black" fill-opacity="0.2"/>
</g>
<defs>
<clipPath id="clip0_5156_12440">
<rect width="24" height="24" fill="white"/>
</clipPath>
</defs>
</svg>
