<svg width="24" height="24" viewBox="0 0 24 24" fill="none" xmlns="http://www.w3.org/2000/svg">
<g clip-path="url(#clip0_5550_3233)">
<path d="M10.6667 5.33252C10.6667 8.27802 8.27972 10.6667 5.33421 10.6667C2.38871 10.6667 0 8.27802 0 5.33252C0 2.38701 2.38871 0 5.33421 0C8.27972 0 10.6667 2.38758 10.6667 5.33252Z" fill="#062433"/>
<path d="M10.6667 5.33252C10.6667 8.27802 8.27972 10.6667 5.33421 10.6667C2.38871 10.6667 0 8.27802 0 5.33252C0 2.38701 2.38871 0 5.33421 0C8.27972 0 10.6667 2.38758 10.6667 5.33252Z" fill="black" fill-opacity="0.2"/>
<path d="M24.0118 17.5234C24.0118 21.107 21.1058 24.0113 17.5222 24.0113C13.9386 24.0113 11.0371 21.107 11.0371 17.5234C11.0371 13.9398 13.9403 11.0349 17.5222 11.0349C21.1041 11.0349 24.0118 13.9398 24.0118 17.5234Z" fill="#062433"/>
<path d="M24.0118 17.5234C24.0118 21.107 21.1058 24.0113 17.5222 24.0113C13.9386 24.0113 11.0371 21.107 11.0371 17.5234C11.0371 13.9398 13.9403 11.0349 17.5222 11.0349C21.1041 11.0349 24.0118 13.9398 24.0118 17.5234Z" fill="black" fill-opacity="0.2"/>
<path d="M21.6997 5.33251C21.6997 7.63933 19.8294 9.5102 17.522 9.5102C15.2146 9.5102 13.3477 7.63933 13.3477 5.33251C13.3477 3.02569 15.218 1.15707 17.522 1.15707C19.826 1.15707 21.6997 3.02625 21.6997 5.33251Z" fill="#062433"/>
<path d="M21.6997 5.33251C21.6997 7.63933 19.8294 9.5102 17.522 9.5102C15.2146 9.5102 13.3477 7.63933 13.3477 5.33251C13.3477 3.02569 15.218 1.15707 17.522 1.15707C19.826 1.15707 21.6997 3.02625 21.6997 5.33251Z" fill="black" fill-opacity="0.2"/>
<path d="M8.35598 17.5234C8.35598 19.1921 7.00238 20.5423 5.33424 20.5423C3.6661 20.5423 2.3125 19.1921 2.3125 17.5234C2.3125 15.8547 3.6661 14.5045 5.33424 14.5045C7.00238 14.5045 8.35598 15.8547 8.35598 17.5234Z" fill="#062433"/>
<path d="M8.35598 17.5234C8.35598 19.1921 7.00238 20.5423 5.33424 20.5423C3.6661 20.5423 2.3125 19.1921 2.3125 17.5234C2.3125 15.8547 3.6661 14.5045 5.33424 14.5045C7.00238 14.5045 8.35598 15.8547 8.35598 17.5234Z" fill="black" fill-opacity="0.2"/>
</g>
<defs>
<clipPath id="clip0_5550_3233">
<rect width="24" height="24" fill="white"/>
</clipPath>
</defs>
</svg>
