<svg width="52" height="44" viewBox="0 0 52 44" fill="none" xmlns="http://www.w3.org/2000/svg">
<path d="M27.625 44C29.4962 41.2299 30.9981 38.4351 32.1307 35.6155C33.2633 32.7465 34.0758 29.7538 34.5682 26.6374C35.0606 23.4716 35.3068 20.0832 35.3068 16.4722C35.3068 13.9494 35.3068 11.3524 35.3068 8.68128C35.3068 6.01012 35.3068 3.31423 35.3068 0.593593L42.9148 0C46.1155 0.296798 48.4299 1.53345 49.858 3.70995C51.286 5.83699 52 8.48342 52 11.6492C52 14.8645 51.5322 18.0304 50.5966 21.1467C49.7102 24.2631 48.4792 27.231 46.9034 30.0506C45.3277 32.8702 43.5795 35.4424 41.6591 37.7673C39.7386 40.0922 37.7689 42.0956 35.75 43.7774L27.625 44ZM0 44C1.87121 41.2299 3.37311 38.4351 4.50568 35.6155C5.63826 32.7465 6.45076 29.7538 6.94318 26.6374C7.43561 23.4716 7.68182 20.0832 7.68182 16.4722C7.68182 13.9494 7.68182 11.3524 7.68182 8.68128C7.68182 6.01012 7.68182 3.31423 7.68182 0.593593L15.2898 0C18.4905 0.296798 20.8049 1.53345 22.233 3.70995C23.661 5.83699 24.375 8.48342 24.375 11.6492C24.375 14.8645 23.9072 18.0304 22.9716 21.1467C22.0852 24.2631 20.8542 27.231 19.2784 30.0506C17.7027 32.8702 15.9545 35.4424 14.0341 37.7673C12.1136 40.0922 10.1439 42.0956 8.125 43.7774L0 44Z" fill="#FBE7DD"/>
</svg>
