<svg width="52" height="44" viewBox="0 0 52 44" fill="none" xmlns="http://www.w3.org/2000/svg">
<path d="M36.7102 44C33.5587 43.6537 31.2443 42.4171 29.767 40.2901C28.339 38.1135 27.625 35.4671 27.625 32.3508C27.625 29.1355 28.0682 25.9696 28.9545 22.8533C29.8902 19.7369 31.1212 16.769 32.6477 13.9494C34.2235 11.1298 35.9716 8.55761 37.892 6.23271C39.8617 3.85835 41.8561 1.85497 43.875 0.22259L52 0C50.0795 2.7701 48.553 5.58966 47.4205 8.45868C46.3371 11.2782 45.5492 14.2709 45.0568 17.4368C44.5644 20.5531 44.3182 23.9168 44.3182 27.5278C44.3182 30.0506 44.3182 32.6475 44.3182 35.3187C44.3182 37.9899 44.3182 40.6858 44.3182 43.4064L36.7102 44ZM9.08523 44C5.88447 43.6537 3.57008 42.4171 2.14205 40.2901C0.714015 38.1135 0 35.4671 0 32.3508C0 29.1355 0.443182 25.9696 1.32955 22.8533C2.26515 19.7369 3.49621 16.769 5.02273 13.9494C6.59848 11.1298 8.34659 8.55761 10.267 6.23271C12.1875 3.85835 14.1572 1.85497 16.1761 0.22259L24.3011 0C22.4299 2.7701 20.928 5.58966 19.7955 8.45868C18.7121 11.2782 17.8996 14.2709 17.358 17.4368C16.8655 20.5531 16.6193 23.9168 16.6193 27.5278C16.6193 30.0506 16.6193 32.6475 16.6193 35.3187C16.6193 37.9899 16.6193 40.6858 16.6193 43.4064L9.08523 44Z" fill="#FBE7DD"/>
</svg>
