<svg width="52" height="52" viewBox="0 0 52 52" fill="none" xmlns="http://www.w3.org/2000/svg">
<g clip-path="url(#clip0_5024_1980)">
<path d="M26 52C40.3594 52 52 40.3594 52 26C52 11.6406 40.3594 0 26 0C11.6406 0 0 11.6406 0 26C0 40.3594 11.6406 52 26 52Z" fill="url(#paint0_linear_5024_1980)"/>
<path fill-rule="evenodd" clip-rule="evenodd" d="M11.7691 25.7256C19.3486 22.4234 24.4028 20.2463 26.9317 19.1944C34.1522 16.1912 35.6525 15.6695 36.6304 15.6523C36.8455 15.6485 37.3264 15.7018 37.6379 15.9546C37.901 16.168 37.9733 16.4563 38.008 16.6587C38.0426 16.861 38.0857 17.322 38.0515 17.6822C37.6602 21.7934 35.9671 31.7702 35.1058 36.3749C34.7413 38.3233 34.0237 38.9765 33.3289 39.0405C31.819 39.1794 30.6725 38.0426 29.2101 37.084C26.9218 35.584 25.629 34.6502 23.4078 33.1865C20.8408 31.4949 22.5049 30.5651 23.9678 29.0456C24.3507 28.648 31.0032 22.597 31.132 22.0481C31.1481 21.9795 31.163 21.7236 31.011 21.5884C30.8589 21.4533 30.6346 21.4995 30.4727 21.5363C30.2431 21.5884 26.5875 24.0046 19.5057 28.785C18.4681 29.4975 17.5282 29.8447 16.6861 29.8265C15.7578 29.8064 13.972 29.3016 12.6445 28.8701C11.0163 28.3408 9.72216 28.061 9.83484 27.1621C9.89354 26.6939 10.5383 26.2151 11.7691 25.7256Z" fill="white"/>
</g>
<defs>
<linearGradient id="paint0_linear_5024_1980" x1="26" y1="0" x2="26" y2="51.6143" gradientUnits="userSpaceOnUse">
<stop stop-color="#2AABEE"/>
<stop offset="1" stop-color="#229ED9"/>
</linearGradient>
<clipPath id="clip0_5024_1980">
<rect width="52" height="52" fill="white"/>
</clipPath>
</defs>
</svg>
