<svg width="24" height="24" viewBox="0 0 24 24" fill="none" xmlns="http://www.w3.org/2000/svg">
<path fill-rule="evenodd" clip-rule="evenodd" d="M12.8836 0.0143981C15.7935 0.1568 18.5051 1.35164 20.5761 3.41518C22.7852 5.61619 24.0012 8.54193 24 11.6533C23.9974 18.0739 18.7479 23.298 12.2992 23.298C9.87419 23.298 7.94712 22.5562 6.70281 21.8807L0.5 23.5L2.16002 17.4657C1.13606 15.6997 0.597266 13.6965 0.59811 11.6441C0.6007 5.2236 5.8497 0 12.2991 0L12.8836 0.0143981ZM17.7935 14.1604C17.9975 14.2585 18.1352 14.3247 18.194 14.4224C18.2671 14.5438 18.2671 15.1263 18.0235 15.8061C17.7799 16.4857 16.6118 17.106 16.0501 17.1896C15.5463 17.2645 14.909 17.2957 14.2086 17.0743C13.784 16.9402 13.2394 16.7612 12.5419 16.4614C9.80112 15.2835 7.94889 12.6398 7.59875 12.1401C7.57422 12.1051 7.55706 12.0806 7.54748 12.0679C7.53303 12.0487 7.50977 12.0178 7.47958 11.9765C7.2803 11.7036 6.77923 10.9723 6.51793 10.0995C6.41839 9.76699 6.35365 9.41397 6.35365 9.05792C6.35365 7.71751 7.01533 7.01495 7.3198 6.69168C7.34062 6.66957 7.35977 6.64924 7.37693 6.63059C7.64492 6.33923 7.96166 6.26646 8.15658 6.26646C8.35146 6.26646 8.54655 6.26831 8.71688 6.27672C8.73789 6.27777 8.75975 6.27764 8.78234 6.27751C8.95272 6.27653 9.16515 6.2753 9.37473 6.77619C9.45529 6.96884 9.57314 7.2544 9.69746 7.55561C9.94909 8.16531 10.2272 8.83917 10.2761 8.9367C10.3492 9.08235 10.398 9.2522 10.3005 9.44642C10.2859 9.47561 10.2723 9.50317 10.2593 9.52949C10.1862 9.67816 10.1323 9.78752 10.0082 9.93183C9.95943 9.98845 9.90909 10.0495 9.85874 10.1105C9.758 10.2326 9.65726 10.3547 9.56955 10.4416C9.4232 10.5866 9.27088 10.7442 9.44138 11.0354C9.61193 11.3267 10.1987 12.2795 11.0678 13.0511C12.0023 13.8805 12.8144 14.2311 13.2259 14.4087C13.3062 14.4434 13.3712 14.4715 13.419 14.4952C13.7113 14.6409 13.8818 14.6166 14.0523 14.4224C14.223 14.2282 14.7833 13.5728 14.9781 13.2815C15.173 12.9903 15.3679 13.0388 15.6359 13.1358C15.9039 13.233 17.3413 13.9369 17.6337 14.0825C17.6907 14.111 17.7441 14.1366 17.7935 14.1604Z" fill="white"/>
</svg>
