<svg width="44" height="44" viewBox="0 0 44 44" fill="none" xmlns="http://www.w3.org/2000/svg">
<path fill-rule="evenodd" clip-rule="evenodd" d="M23.6199 0.0263965C28.9548 0.287467 33.926 2.47801 37.7229 6.26116C41.7729 10.2963 44.0022 15.6602 44 21.3644C43.9952 33.1356 34.3712 42.7131 22.5486 42.7131C18.1027 42.7131 14.5697 41.353 12.2885 40.1146L0.916672 43.0833L3.96003 32.0204C2.08279 28.7828 1.09499 25.1103 1.09654 21.3475C1.10129 9.57661 10.7245 0 22.5483 0L23.6199 0.0263965ZM12.8153 36.2497L13.4665 36.6342C16.204 38.251 19.3419 39.1064 22.5413 39.1076H22.5485C32.3758 39.1076 40.3741 31.1473 40.378 21.3632C40.3799 16.6219 38.5271 12.1637 35.1608 8.80973C31.7945 5.45556 27.3179 3.60733 22.5556 3.60579C12.7208 3.60579 4.72235 11.5652 4.71842 21.3487C4.71708 24.7016 5.65968 27.9669 7.44446 30.792L7.86839 31.4635L6.0672 38.0114L12.8153 36.2497ZM33.3556 26.4411C33.2217 26.2184 32.8644 26.085 32.3284 25.818C31.7924 25.551 29.1572 24.2605 28.6659 24.0823C28.1745 23.9045 27.8172 23.8156 27.4599 24.3495C27.1026 24.8834 26.0754 26.085 25.7626 26.4411C25.45 26.7971 25.1374 26.8416 24.6015 26.5746C24.0655 26.3077 22.3384 25.7443 20.2911 23.9269C18.6976 22.5124 17.6219 20.7656 17.3092 20.2316C16.9966 19.6976 17.2759 19.4088 17.5442 19.1429C17.7853 18.9039 18.0803 18.5198 18.3483 18.2084C18.6163 17.897 18.7055 17.6743 18.8843 17.3184C19.0629 16.9624 18.9736 16.651 18.8396 16.3839C18.7056 16.1168 17.6336 13.4911 17.187 12.423C16.7518 11.3829 16.3099 11.5237 15.981 11.5073C15.6687 11.4919 15.311 11.4885 14.9537 11.4885C14.5964 11.4885 14.0157 11.6219 13.5244 12.1561C13.0331 12.69 11.6484 13.9807 11.6484 16.6062C11.6484 19.232 13.5691 21.7683 13.8371 22.1244C14.1051 22.4806 17.6166 27.8684 22.9935 30.1792C24.2723 30.7288 25.2707 31.057 26.0491 31.3028C27.3332 31.7088 28.5016 31.6516 29.4252 31.5142C30.455 31.3611 32.5964 30.2237 33.043 28.9778C33.4897 27.7316 33.4897 26.6635 33.3556 26.4411Z" fill="white"/>
<path fill-rule="evenodd" clip-rule="evenodd" d="M12.8153 36.2497L13.4665 36.6342C16.204 38.251 19.3419 39.1064 22.5413 39.1076H22.5485C32.3758 39.1076 40.3741 31.1473 40.378 21.3632C40.3799 16.6219 38.5271 12.1637 35.1608 8.80973C31.7945 5.45556 27.3179 3.60733 22.5556 3.60579C12.7208 3.60579 4.72235 11.5652 4.71842 21.3487C4.71708 24.7016 5.65968 27.9669 7.44446 30.792L7.86839 31.4635L6.0672 38.0114L12.8153 36.2497ZM32.3284 25.818C32.8644 26.085 33.2217 26.2184 33.3556 26.4411C33.4897 26.6635 33.4897 27.7316 33.043 28.9778C32.5964 30.2237 30.455 31.3611 29.4252 31.5142C28.5016 31.6516 27.3332 31.7088 26.0491 31.3028C25.2707 31.057 24.2723 30.7288 22.9935 30.1792C17.6166 27.8684 14.1051 22.4806 13.8371 22.1244L13.8323 22.1182C13.5474 21.7397 11.6484 19.2172 11.6484 16.6062C11.6484 13.9807 13.0331 12.69 13.5244 12.1561C14.0157 11.6219 14.5964 11.4885 14.9537 11.4885C15.311 11.4885 15.6687 11.4919 15.981 11.5073C16.3099 11.5237 16.7518 11.3829 17.187 12.423C17.6336 13.4911 18.7056 16.1168 18.8396 16.3839C18.9736 16.651 19.0629 16.9624 18.8843 17.3184C18.7055 17.6743 18.6163 17.897 18.3483 18.2084C18.0803 18.5198 17.7853 18.9039 17.5442 19.1429C17.2759 19.4088 16.9966 19.6976 17.3092 20.2316C17.6219 20.7656 18.6976 22.5124 20.2911 23.9269C22.3384 25.7443 24.0655 26.3077 24.6015 26.5746C25.1374 26.8416 25.45 26.7971 25.7626 26.4411C26.0754 26.085 27.1026 24.8834 27.4599 24.3495C27.8172 23.8156 28.1745 23.9045 28.6659 24.0823C29.1572 24.2605 31.7924 25.551 32.3284 25.818Z" fill="url(#paint0_linear_5024_1981)"/>
<defs>
<linearGradient id="paint0_linear_5024_1981" x1="22.5482" y1="39.1076" x2="22.5482" y2="3.60581" gradientUnits="userSpaceOnUse">
<stop stop-color="#25CF43"/>
<stop offset="1" stop-color="#61FD7D"/>
</linearGradient>
</defs>
</svg>
