<svg width="36" height="36" viewBox="0 0 36 36" fill="none" xmlns="http://www.w3.org/2000/svg">
<path d="M3.06006 18C3.06006 9.7155 9.77406 3 18.0601 3C26.3431 3 33.0601 9.7155 33.0601 18C33.0601 26.2845 26.3431 33 18.0601 33C9.77406 33 3.06006 26.2845 3.06006 18Z" fill="#FC3F1D"/>
<path d="M19.9806 11.4988H18.5946C16.0536 11.4988 14.7171 12.7858 14.7171 14.6833C14.7171 16.8283 15.6411 17.8333 17.5386 19.1218L19.1061 20.1778L14.6016 26.9083H11.2356L15.2781 20.8873C12.9531 19.2208 11.6481 17.6023 11.6481 14.8648C11.6481 11.4328 14.0406 9.08984 18.5781 9.08984H23.0826V26.8918H19.9806V11.4988Z" fill="white"/>
</svg>
